<?xml version="1.0" ?><!DOCTYPE svg  PUBLIC '-//W3C//DTD SVG 1.1//EN'  'http://www.w3.org/Graphics/SVG/1.1/DTD/svg11.dtd'><svg width="32px" height="32px" viewBox="0 0 32 32" enable-background="new 0 0 32 32" version="1.1" xml:space="preserve" xmlns="http://www.w3.org/2000/svg" xmlns:xlink="http://www.w3.org/1999/xlink"><g id="Layer_2"/><g id="Layer_3"/><g id="Layer_4"/><g id="Layer_5"/><g id="Layer_6"/><g id="Layer_7"/><g id="Layer_8"/><g id="Layer_9"/><g id="Layer_10"/><g id="Layer_11"/><g id="Layer_12"/><g id="Layer_13"/><g id="Layer_14"/><g id="Layer_15"/><g id="Layer_16"><g></g><g><g><path d="M9,24c-0.2559,0-0.5117-0.0977-0.707-0.293c-0.3906-0.3906-0.3906-1.0234,0-1.4141l3.9302-3.9297     c0.3906-0.3906,1.0234-0.3906,1.4141,0s0.3906,1.0234,0,1.4141L9.707,23.707C9.5117,23.9023,9.2559,24,9,24z" fill="#00ACBA"/></g><g><path d="M4,31c-0.8018,0-1.5547-0.3125-2.1216-0.8789C1.3125,29.5557,1,28.8018,1,28     c0-0.8008,0.312-1.5547,0.8789-2.1211l5-5c0.3906-0.3906,1.0234-0.3906,1.4141,0l2.8281,2.8281     c0.3906,0.3906,0.3906,1.0234,0,1.4141l-5,5C5.5547,30.6875,4.8013,31,4,31z M7.5859,23l-4.293,4.293     C3.104,27.4824,3,27.7334,3,28c0,0.2676,0.104,0.5176,0.2925,0.7061c0.3789,0.3809,1.0366,0.3779,1.4146,0.001L9,24.4141     L7.5859,23z" fill="#0181B0"/></g></g><g><path d="M20,23c-6.0654,0-11-4.9346-11-11S13.9346,1,20,1s11,4.9346,11,11S26.0654,23,20,23z M20,3    c-4.9624,0-9,4.0376-9,9s4.0376,9,9,9s9-4.0376,9-9S24.9624,3,20,3z" fill="#0181B0"/></g></g><g id="Layer_17"/><g id="Layer_18"/><g id="Layer_19"/><g id="Layer_20"/><g id="Layer_21"/><g id="Layer_22"/><g id="Layer_23"/><g id="Layer_24"/><g id="Layer_25"/><g id="Layer_26"/></svg>