<?xml version="1.0" ?><!DOCTYPE svg  PUBLIC '-//W3C//DTD SVG 1.1//EN'  'http://www.w3.org/Graphics/SVG/1.1/DTD/svg11.dtd'><svg width="32px" height="32px" viewBox="0 0 32 32" enable-background="new 0 0 32 32" version="1.1" xml:space="preserve" xmlns="http://www.w3.org/2000/svg" xmlns:xlink="http://www.w3.org/1999/xlink"><g id="Layer_2"/><g id="Layer_3"/><g id="Layer_4"/><g id="Layer_5"/><g id="Layer_6"/><g id="Layer_7"/><g id="Layer_8"/><g id="Layer_9"><path d="M26,21H6c-0.5522,0-1-0.4473-1-1V6c0-0.5527,0.4478-1,1-1h20c0.5527,0,1,0.4473,1,1v14   C27,20.5527,26.5527,21,26,21z M7,19h18V7H7V19z" fill="#0181B0"/><path d="M30,27H2c-0.3687,0-0.7075-0.2031-0.8818-0.5283c-0.1738-0.3252-0.1548-0.7197,0.0498-1.0264l4-6   C5.3535,19.167,5.6655,19,6,19h20c0.334,0,0.6465,0.167,0.832,0.4453l4,6c0.2041,0.3066,0.2236,0.7012,0.0498,1.0264   S30.3691,27,30,27z M3.8687,25h24.2632l-2.667-4H6.5352L3.8687,25z" fill="#00ACBA"/><g><path d="M22.707,13.293c-0.3906-0.3906-1.0234-0.3906-1.4141,0L21,13.5859V9c0-0.5527-0.4473-1-1-1s-1,0.4473-1,1    v4.5859l-0.293-0.293c-0.3906-0.3906-1.0234-0.3906-1.4141,0s-0.3906,1.0234,0,1.4141l1.9987,1.9987    c0.0924,0.0928,0.2034,0.1664,0.3264,0.2172C19.7402,16.9735,19.8699,17,20,17s0.2597-0.0265,0.3819-0.077    c0.123-0.0509,0.234-0.1245,0.3264-0.2172l1.9987-1.9987C23.0977,14.3164,23.0977,13.6836,22.707,13.293z" fill="#F5D803"/><path d="M12.7077,8.2936c-0.0923-0.0925-0.2031-0.1658-0.3258-0.2166c-0.2443-0.101-0.5195-0.101-0.7638,0    c-0.1227,0.0508-0.2335,0.1241-0.3258,0.2166L9.293,10.293c-0.3906,0.3906-0.3906,1.0234,0,1.4141s1.0234,0.3906,1.4141,0    L11,11.4141V16c0,0.5527,0.4478,1,1,1s1-0.4473,1-1v-4.5859l0.293,0.293C13.4883,11.9023,13.7441,12,14,12    s0.5117-0.0977,0.707-0.293c0.3906-0.3906,0.3906-1.0234,0-1.4141L12.7077,8.2936z" fill="#F5D803"/></g></g><g id="Layer_10"/><g id="Layer_11"/><g id="Layer_12"/><g id="Layer_13"/><g id="Layer_14"/><g id="Layer_15"/><g id="Layer_16"/><g id="Layer_17"/><g id="Layer_18"/><g id="Layer_19"/><g id="Layer_20"/><g id="Layer_21"/><g id="Layer_22"/><g id="Layer_23"/><g id="Layer_24"/><g id="Layer_25"/><g id="Layer_26"/></svg>