<?xml version="1.0" ?><!DOCTYPE svg  PUBLIC '-//W3C//DTD SVG 1.1//EN'  'http://www.w3.org/Graphics/SVG/1.1/DTD/svg11.dtd'><svg width="32px" height="32px" viewBox="0 0 32 32" enable-background="new 0 0 32 32" version="1.1" xml:space="preserve" xmlns="http://www.w3.org/2000/svg" xmlns:xlink="http://www.w3.org/1999/xlink"><g id="Layer_2"/><g id="Layer_3"/><g id="Layer_4"/><g id="Layer_5"/><g id="Layer_6"/><g id="Layer_7"/><g id="Layer_8"/><g id="Layer_9"/><g id="Layer_10"/><g id="Layer_11"/><g id="Layer_12"/><g id="Layer_13"/><g id="Layer_14"/><g id="Layer_15"><path d="M16.5498,23.0801c-0.1113,0-0.2241-0.0186-0.335-0.0576c-0.5205-0.1855-0.7925-0.7568-0.6074-1.2773   l1.4502-4.0801c0.1846-0.5205,0.7554-0.792,1.2773-0.6074c0.5205,0.1855,0.7925,0.7568,0.6074,1.2773l-1.4502,4.0801   C17.3467,22.8242,16.9609,23.0801,16.5498,23.0801z" fill="#00ACBA"/><path d="M30,10H2c-0.5522,0-1-0.4478-1-1V3c0-0.5522,0.4478-1,1-1h28c0.5522,0,1,0.4478,1,1v6   C31,9.5522,30.5522,10,30,10z M3,8h26V4H3V8z" fill="#00ACBA"/><path d="M24,20c-0.5522,0-1-0.4473-1-1c0-3.3086-3.1401-6-7-6s-7,2.6914-7,6c0,0.5527-0.4478,1-1,1s-1-0.4473-1-1   c0-4.4111,4.0376-8,9-8s9,3.5889,9,8C25,19.5527,24.5522,20,24,20z" fill="#F5D803"/><path d="M16,27c-1.6543,0-3-1.3457-3-3s1.3457-3,3-3s3,1.3457,3,3S17.6543,27,16,27z M16,23c-0.5513,0-1,0.4482-1,1   s0.4487,1,1,1s1-0.4482,1-1S16.5513,23,16,23z" fill="#00ACBA"/><path d="   M16,22" fill="none" stroke="#231F20" stroke-linecap="round" stroke-linejoin="round" stroke-miterlimit="10" stroke-width="2"/><path d="M16,15c-0.5522,0-1-0.4478-1-1v-2c0-0.5522,0.4478-1,1-1s1,0.4478,1,1v2C17,14.5522,16.5522,15,16,15z" fill="#F5D803"/><path d="M11,18c-0.2559,0-0.5117-0.0977-0.707-0.293l-1.2998-1.2998c-0.3906-0.3906-0.3906-1.0234,0-1.4141   s1.0234-0.3906,1.4141,0l1.2998,1.2998c0.3906,0.3906,0.3906,1.0234,0,1.4141C11.5117,17.9023,11.2559,18,11,18z" fill="#F5D803"/><path d="M21,17c-0.2559,0-0.5117-0.0977-0.707-0.293c-0.3906-0.3906-0.3906-1.0234,0-1.4141l1.2998-1.2998   c0.3906-0.3906,1.0234-0.3906,1.4141,0s0.3906,1.0234,0,1.4141L21.707,16.707C21.5117,16.9023,21.2559,17,21,17z" fill="#F5D803"/><path d="M7,7H5C4.4478,7,4,6.5522,4,6s0.4478-1,1-1h2c0.5522,0,1,0.4478,1,1S7.5522,7,7,7z" fill="#F5D803"/><path d="M12,7h-2C9.4478,7,9,6.5522,9,6s0.4478-1,1-1h2c0.5522,0,1,0.4478,1,1S12.5522,7,12,7z" fill="#F5D803"/><path d="M30,30H2c-0.5522,0-1-0.4473-1-1V3c0-0.5522,0.4478-1,1-1h28c0.5522,0,1,0.4478,1,1v26   C31,29.5527,30.5522,30,30,30z M3,28h26V4H3V28z" fill="#0181B0"/></g><g id="Layer_16"/><g id="Layer_17"/><g id="Layer_18"/><g id="Layer_19"/><g id="Layer_20"/><g id="Layer_21"/><g id="Layer_22"/><g id="Layer_23"/><g id="Layer_24"/><g id="Layer_25"/><g id="Layer_26"/></svg>