<?xml version="1.0" ?><!DOCTYPE svg  PUBLIC '-//W3C//DTD SVG 1.1//EN'  'http://www.w3.org/Graphics/SVG/1.1/DTD/svg11.dtd'><svg width="32px" height="32px" viewBox="0 0 32 32" enable-background="new 0 0 32 32" version="1.1" xml:space="preserve" xmlns="http://www.w3.org/2000/svg" xmlns:xlink="http://www.w3.org/1999/xlink"><g id="Layer_2"/><g id="Layer_3"/><g id="Layer_4"/><g id="Layer_5"/><g id="Layer_6"/><g id="Layer_7"/><g id="Layer_8"/><g id="Layer_9"/><g id="Layer_10"/><g id="Layer_11"/><g id="Layer_12"/><g id="Layer_13"/><g id="Layer_14"><g><path d="M19,21h-6c-0.5522,0-1-0.4473-1-1v-4c0-2.2056,1.7944-4,4-4c2.2061,0,4,1.7944,4,4v4    C20,20.5527,19.5527,21,19,21z M14,19h4v-3c0-1.103-0.8975-2-2-2c-1.103,0-2,0.897-2,2V19z" fill="#0181B0"/></g><g><path d="M24,23h-3c-0.5527,0-1-0.4473-1-1s0.4473-1,1-1h3c2.7568,0,5-2.2432,5-5s-2.2432-5-5-5    c-0.0469,0-0.0879-0.0024-0.1289,0.0024c-0.5,0.064-0.9668-0.2588-1.0898-0.7461C21.9941,7.1616,19.2051,5,16,5    c-3.8599,0-7,3.1401-7,7v0.1001c0,0.3027-0.1372,0.5894-0.3735,0.7793c-0.2358,0.1899-0.5444,0.2642-0.8413,0.1973    C7.5537,13.0259,7.2896,13,7,13c-2.2056,0-4,1.7944-4,4c0,2.2061,1.7944,4,4,4h4c0.5522,0,1,0.4473,1,1s-0.4478,1-1,1H7    c-3.3086,0-6-2.6914-6-6s2.6914-6,6-6c0.0186,0,0.0366,0,0.0552,0C7.5537,6.5063,11.375,3,16,3    c3.8584,0,7.2471,2.438,8.4951,6.0171C28.125,9.272,31,12.3066,31,16C31,19.8594,27.8594,23,24,23z" fill="#0181B0"/></g><g><path d="M20,29h-8c-1.103,0-2-0.8975-2-2v-6c0-1.1025,0.897-2,2-2h8c1.1025,0,2,0.8975,2,2v6    C22,28.1025,21.1025,29,20,29z M12,21v6h8.002L20,21H12z" fill="#F5D803"/></g></g><g id="Layer_15"/><g id="Layer_16"/><g id="Layer_17"/><g id="Layer_18"/><g id="Layer_19"/><g id="Layer_20"/><g id="Layer_21"/><g id="Layer_22"/><g id="Layer_23"/><g id="Layer_24"/><g id="Layer_25"/><g id="Layer_26"/></svg>